<svg xmlns="http://www.w3.org/2000/svg" version="1.1" xmlns:xlink="http://www.w3.org/1999/xlink" xmlns:svgjs="http://svgjs.dev/svgjs" width="1000" height="1175" viewBox="0 0 1000 1175"><g transform="matrix(1,0,0,1,-0.42909656652341255,-1.6624999999997954)"><svg viewBox="0 0 120 141" data-background-color="#ffffff" preserveAspectRatio="xMidYMid meet" height="1175" width="1000" xmlns="http://www.w3.org/2000/svg" xmlns:xlink="http://www.w3.org/1999/xlink"><g id="tight-bounds" transform="matrix(1,0,0,1,0.051491587982809506,0.19949999999997203)"><svg viewBox="0 0 119.89701682403435 140.60052000000002" height="140.60052000000002" width="119.89701682403435"><g><svg viewBox="0 0 119.89701682403435 140.60052000000002" height="140.60052000000002" width="119.89701682403435"><g><svg viewBox="0 0 119.89701682403435 140.60052000000002" height="140.60052000000002" width="119.89701682403435"><g><path d="M0 140.601v-140.601h119.897v140.601z" fill="#fce44d" stroke="transparent" stroke-width="0" rx="0%" data-fill-palette-color="tertiary"></path><path d="M3.283 137.317v-134.034h113.331v134.034z" fill="#ffffff" stroke="transparent" stroke-width="0" rx="0%" data-fill-palette-color="quaternary"></path><path d="M9.85 130.751v-120.901h100.197v120.901z" fill="#fce44d" stroke="transparent" stroke-width="0" data-fill-palette-color="tertiary"></path></g><g transform="matrix(1,0,0,1,19.69974,19.69974)" id="textblocktransform"><svg viewBox="0 0 80.49753682403436 101.20104000000002" height="101.20104000000002" width="80.49753682403436" id="textblock"><g><svg viewBox="0 0 80.49753682403436 101.20104000000002" height="101.20104000000002" width="80.49753682403436"><g transform="matrix(1,0,0,1,0,0)"><svg width="80.49753682403436" viewBox="0 -34.95000076293945 27.799999237060547 34.95000076293945" height="101.20104000000002" data-palette-color="#ffffff"><path d="M18.4-2.15L27.8-2.15 27.8 0 0 0 0-2.15 5.95-2.15Q3.5-3.25 1.3-5.55L1.3-5.55 5.35-11.3Q8.5-7.9 11.95-7.9L11.95-7.9Q13.6-7.9 14.78-9.2 15.95-10.5 15.95-13L15.95-13 15.95-28.25 5.6-28.25 5.6-34.95 23.8-34.95 23.8-13.15Q23.8-5.2 18.4-2.15L18.4-2.15Z" opacity="1" transform="matrix(1,0,0,1,0,0)" fill="#ffffff" class="wordmark-text-0" data-fill-palette-color="quaternary" id="text-0"></path></svg></g></svg></g></svg></g></svg></g><g></g></svg></g><defs></defs></svg><rect width="119.89701682403435" height="140.60052000000002" fill="none" stroke="none" visibility="hidden"></rect></g></svg></g></svg>